<svg width="60" height="68" viewBox="0 0 60 68" fill="none" xmlns="http://www.w3.org/2000/svg">
<g clip-path="url(#clip0_8336_1050)">
<g clip-path="url(#clip1_8336_1050)">
<g clip-path="url(#clip2_8336_1050)">
<mask id="mask0_8336_1050" style="mask-type:luminance" maskUnits="userSpaceOnUse" x="0" y="0" width="60" height="60">
<path d="M59.8377 0.47998H0.648438V59.6692H59.8377V0.47998Z" fill="white"/>
</mask>
<g mask="url(#mask0_8336_1050)">
<path d="M12.4277 14.6228V30.4799C15.4277 29.4799 22.7992 29.2799 28.2849 36.4799C29.5706 39.1943 31.6277 45.4799 29.5706 48.9085L35.5706 52.3371V26.6228L12.4277 14.6228Z" fill="#FDC040"/>
<path d="M59.2379 13.2815L36.1857 0.623298C35.8394 0.433184 35.4194 0.433184 35.0731 0.623298L26.3843 5.39422C26.201 5.44254 26.0298 5.53466 25.888 5.66697L12.0213 13.2815C11.6516 13.4842 11.4217 13.8726 11.4217 14.2948V29.6042C9.08253 30.3358 6.93886 31.6259 5.15648 33.4088C0.510651 38.0541 -0.673837 45.1394 2.20903 51.0392C2.48901 51.6128 3.18128 51.8508 3.75479 51.5703C4.32874 51.2899 4.56627 50.5976 4.28629 50.0241C1.83694 45.0111 2.8435 38.9912 6.7912 35.0435C9.25996 32.5747 12.542 31.215 16.0332 31.215C19.5243 31.215 22.8064 32.5747 25.2752 35.0435C27.7435 37.5118 29.1032 40.7939 29.1032 44.285C29.1032 47.7762 27.7435 51.0583 25.2747 53.527C21.3271 57.4747 15.307 58.4813 10.2941 56.0319C9.72059 55.7515 9.02827 55.9895 8.74833 56.5629C8.46791 57.137 8.70547 57.8292 9.27942 58.1091C11.4284 59.1596 13.7342 59.6698 16.0232 59.6698C20.0166 59.6694 23.9566 58.115 26.9099 55.1618C28.2642 53.8075 29.3344 52.245 30.0917 50.5466L35.0731 53.2818C35.2465 53.3771 35.438 53.4245 35.6294 53.4245C35.8208 53.4245 36.0128 53.3771 36.1857 53.2818L59.2379 40.6241C59.6078 40.4209 59.8376 40.0325 59.8376 39.6107V31.5767C59.8376 30.9382 59.3201 30.4207 58.6815 30.4207C58.043 30.4207 57.5255 30.9382 57.5255 31.5767V38.9266L36.7891 50.3132V27.6349L43.6328 23.8768V29.834C43.6328 30.2432 43.8486 30.6216 44.2004 30.8294C44.3819 30.9364 44.5851 30.9901 44.7888 30.9901C44.9803 30.9901 45.1722 30.9427 45.346 30.8469L50.2858 28.128C50.6552 27.9248 50.8842 27.5369 50.8842 27.1156V19.8949L57.5255 16.2483V22.3288C57.5255 22.9674 58.043 23.4849 58.6815 23.4849C59.3201 23.4849 59.8376 22.9674 59.8376 22.3288V14.2948C59.8376 13.873 59.6078 13.4842 59.2379 13.2815ZM35.6294 2.95525L56.2796 14.2948L49.7656 17.8718L29.1154 6.5322L35.6294 2.95525ZM35.6294 25.634L14.9792 14.2948L21.7321 10.5865L42.3828 21.9256L35.6294 25.634ZM44.7842 20.607L24.134 9.26784L26.7134 7.85125L47.3641 19.1904L44.7842 20.607ZM26.9099 33.4088C24.0044 30.5033 20.1416 28.9034 16.0332 28.9034C15.256 28.9034 14.4884 28.9607 13.7337 29.0732V16.2483L34.4774 27.639V50.3172L30.877 48.3402C31.2315 47.0351 31.4149 45.674 31.4149 44.285C31.4149 40.1766 29.8149 36.3138 26.9099 33.4088ZM48.5726 26.4323L45.9448 27.8787V22.6075L48.5726 21.1646V26.4323Z" fill="#3BB77E"/>
<path d="M58.6814 25.7903C58.3776 25.7903 58.079 25.9141 57.8641 26.129C57.6492 26.3439 57.5254 26.642 57.5254 26.9463C57.5254 27.2503 57.6492 27.5483 57.8641 27.7633C58.079 27.9787 58.3776 28.1019 58.6814 28.1019C58.9854 28.1019 59.2838 27.9787 59.4988 27.7633C59.7138 27.5483 59.8375 27.2503 59.8375 26.9463C59.8375 26.642 59.7138 26.3439 59.4988 26.129C59.2838 25.9141 58.9854 25.7903 58.6814 25.7903Z" fill="#3BB77E"/>
<path d="M12.1451 45.4404C12.4409 45.4404 12.7371 45.3275 12.9624 45.1021C13.414 44.6505 13.414 43.9185 12.9624 43.467L12.1618 42.6659H18.9941C20.6514 42.6659 21.9998 44.0142 21.9998 45.6715C21.9998 47.3288 20.6514 48.6773 18.9941 48.6773H14.9457C14.3072 48.6773 13.7897 49.1947 13.7897 49.8333C13.7897 50.4714 14.3072 50.9889 14.9457 50.9889H18.9941C21.9263 50.9889 24.3119 48.6036 24.3119 45.6715C24.3119 42.7394 21.9263 40.3542 18.9941 40.3542H12.1618L12.9624 39.5531C13.414 39.1015 13.414 38.3695 12.9624 37.918C12.5112 37.4668 11.7792 37.4668 11.3277 37.918L8.55319 40.6925C8.10206 41.144 8.10206 41.876 8.55319 42.3276L11.3277 45.1016C11.5535 45.3275 11.8493 45.4404 12.1451 45.4404Z" fill="#3BB77E"/>
<path d="M5.97512 55.5016C5.64637 55.5016 5.31988 55.3616 5.09183 55.0902L5.08958 55.0875C4.67864 54.5989 4.74186 53.87 5.23047 53.4591C5.71907 53.0477 6.44837 53.1109 6.85931 53.5995C7.26979 54.0886 7.20793 54.8188 6.71931 55.2297C6.50211 55.4122 6.23794 55.5016 5.97512 55.5016Z" fill="#3BB77E"/>
</g>
</g>
</g>
</g>
<defs>
<clipPath id="clip0_8336_1050">
<rect width="60" height="60" fill="white" transform="translate(0 0.47998)"/>
</clipPath>
<clipPath id="clip1_8336_1050">
<rect width="60" height="60" fill="white" transform="translate(0 0.47998)"/>
</clipPath>
<clipPath id="clip2_8336_1050">
<rect width="60" height="60" fill="white" transform="translate(0 0.47998)"/>
</clipPath>
</defs>
</svg>
